HIERARCHY
ROOT Hips
{
	OFFSET 0.000000 103.266502 0.000000
	CHANNELS 6 Xposition Yposition Zposition Xrotation Yrotation Zrotation 
	JOINT Spine
	{
		OFFSET -0.002400 12.777504 0.315300
		CHANNELS 3 Xrotation Yrotation Zrotation
		JOINT Spine1
		{
			OFFSET -0.002067 5.816869 0.032633
			CHANNELS 3 Xrotation Yrotation Zrotation
			JOINT Spine1_split
			{
				OFFSET -0.002067 5.816869 0.032633
				CHANNELS 3 Xrotation Yrotation Zrotation
				JOINT Spine2
				{
					OFFSET -0.002067 5.816869 0.032633
					CHANNELS 3 Xrotation Yrotation Zrotation
					JOINT Neck
					{
						OFFSET -0.003700 21.199493 -0.826900
						CHANNELS 3 Xrotation Yrotation Zrotation
						JOINT Head
						{
							OFFSET 0.000000 20.442200 4.834800
							CHANNELS 3 Xrotation Yrotation Zrotation
							JOINT HeadTop_End
							{
								OFFSET 0.000000 34.668396 4.968400
								CHANNELS 3 Xrotation Yrotation Zrotation
								End Site
								{
									OFFSET 0.000000 0.000000 0.000000
								}
							}
						}
					}
					JOINT LeftShoulder
					{
						OFFSET 3.288150 8.794197 -1.372250
						CHANNELS 3 Xrotation Yrotation Zrotation
						JOINT LeftShoulder_split
						{
							OFFSET 3.288150 8.794197 -1.372250
							CHANNELS 3 Xrotation Yrotation Zrotation
							JOINT LeftArm
							{
								OFFSET 11.953299 -2.279007 -0.146200
								CHANNELS 3 Xrotation Yrotation Zrotation
								JOINT LeftForeArm
								{
									OFFSET 18.448900 0.000000 0.000000
									CHANNELS 3 Xrotation Yrotation Zrotation
									JOINT LeftHand
									{
										OFFSET 29.527798 0.000000 0.000000
										CHANNELS 3 Xrotation Yrotation Zrotation
										JOINT LeftHandThumb1
										{
											OFFSET 10.739754 -2.369614 9.225399
											CHANNELS 3 Xrotation Yrotation Zrotation
											JOINT LeftHandThumb2
											{
												OFFSET 4.926170 -2.844131 2.844125
												CHANNELS 3 Xrotation Yrotation Zrotation
												JOINT LeftHandThumb3
												{
													OFFSET 4.614891 -2.664413 2.664409
													CHANNELS 3 Xrotation Yrotation Zrotation
													JOINT LeftHandThumb4
													{
														OFFSET 4.432465 -2.559082 2.559083
														CHANNELS 3 Xrotation Yrotation Zrotation
														End Site
														{
															OFFSET 0.000000 0.000000 0.000000
														}
													}
												}
											}
										}
										JOINT LeftHandIndex1
										{
											OFFSET 26.467674 0.187653 6.405298
											CHANNELS 3 Xrotation Yrotation Zrotation
											JOINT LeftHandIndex2
											{
												OFFSET 8.792900 0.000000 0.000000
												CHANNELS 3 Xrotation Yrotation Zrotation
												JOINT LeftHandIndex3
												{
													OFFSET 10.075203 0.000000 0.000000
													CHANNELS 3 Xrotation Yrotation Zrotation
													End Site
													{
														OFFSET 0.000000 0.000000 0.000000
													}
												}
											}
										}
										JOINT LeftHandMiddle1
										{
											OFFSET 25.764404 0.000000 0.000000
											CHANNELS 3 Xrotation Yrotation Zrotation
											JOINT LeftHandMiddle2
											{
												OFFSET 9.393974 0.000000 0.000000
												CHANNELS 3 Xrotation Yrotation Zrotation
												JOINT LeftHandMiddle3
												{
													OFFSET 10.771950 0.000000 0.000000
													CHANNELS 3 Xrotation Yrotation Zrotation
													End Site
													{
														OFFSET 0.000000 0.000000 0.000000
													}
												}
											}
										}
										JOINT LeftHandRing1
										{
											OFFSET 24.660927 0.144547 -6.225808
											CHANNELS 3 Xrotation Yrotation Zrotation
											JOINT LeftHandRing2
											{
												OFFSET 9.393799 0.000000 0.000000
												CHANNELS 3 Xrotation Yrotation Zrotation
												JOINT LeftHandRing3
												{
													OFFSET 9.928497 0.000000 0.000000
													CHANNELS 3 Xrotation Yrotation Zrotation
													End Site
													{
														OFFSET 0.000000 0.000000 0.000000
													}
												}
											}
										}
										JOINT LeftHandPinky1
										{
											OFFSET 23.655350 0.125290 -12.815412
											CHANNELS 3 Xrotation Yrotation Zrotation
											JOINT LeftHandPinky2
											{
												OFFSET 8.425102 0.000000 0.000000
												CHANNELS 3 Xrotation Yrotation Zrotation
												JOINT LeftHandPinky3
												{
													OFFSET 8.147003 0.000000 0.000000
													CHANNELS 3 Xrotation Yrotation Zrotation
													End Site
													{
														OFFSET 0.000000 0.000000 0.000000
													}
												}
											}
										}
									}
								}
							}
						}
					}
					JOINT RightShoulder
					{
						OFFSET -3.249400 8.794197 -1.372250
						CHANNELS 3 Xrotation Yrotation Zrotation
						JOINT RightShoulder_split
						{
							OFFSET -3.249400 8.794197 -1.372250
							CHANNELS 3 Xrotation Yrotation Zrotation
							JOINT RightArm
							{
								OFFSET -11.953299 -2.279007 -0.146200
								CHANNELS 3 Xrotation Yrotation Zrotation
								JOINT RightForeArm
								{
									OFFSET -18.448900 0.000000 0.000000
									CHANNELS 3 Xrotation Yrotation Zrotation
									JOINT RightHand
									{
										OFFSET -29.527802 0.000000 0.000000
										CHANNELS 3 Xrotation Yrotation Zrotation
										JOINT RightHandThumb1
										{
											OFFSET -10.739754 -2.369614 9.225399
											CHANNELS 3 Xrotation Yrotation Zrotation
											JOINT RightHandThumb2
											{
												OFFSET -4.926170 -2.844131 2.844125
												CHANNELS 3 Xrotation Yrotation Zrotation
												JOINT RightHandThumb3
												{
													OFFSET -4.614891 -2.664413 2.664409
													CHANNELS 3 Xrotation Yrotation Zrotation
													JOINT RightHandThumb4
													{
														OFFSET -4.432465 -2.559082 2.559083
														CHANNELS 3 Xrotation Yrotation Zrotation
														End Site
														{
															OFFSET 0.000000 0.000000 0.000000
														}
													}
												}
											}
										}
										JOINT RightHandIndex1
										{
											OFFSET -26.467674 0.187653 6.405298
											CHANNELS 3 Xrotation Yrotation Zrotation
											JOINT RightHandIndex2
											{
												OFFSET -8.792900 0.000000 0.000000
												CHANNELS 3 Xrotation Yrotation Zrotation
												JOINT RightHandIndex3
												{
													OFFSET -10.075203 0.000000 0.000000
													CHANNELS 3 Xrotation Yrotation Zrotation
													End Site
													{
														OFFSET 0.000000 0.000000 0.000000
													}
												}
											}
										}
										JOINT RightHandMiddle1
										{
											OFFSET -25.764404 0.000000 0.000000
											CHANNELS 3 Xrotation Yrotation Zrotation
											JOINT RightHandMiddle2
											{
												OFFSET -9.393974 0.000000 0.000000
												CHANNELS 3 Xrotation Yrotation Zrotation
												JOINT RightHandMiddle3
												{
													OFFSET -10.771950 0.000000 0.000000
													CHANNELS 3 Xrotation Yrotation Zrotation
													End Site
													{
														OFFSET 0.000000 0.000000 0.000000
													}
												}
											}
										}
										JOINT RightHandRing1
										{
											OFFSET -24.660927 0.144547 -6.225808
											CHANNELS 3 Xrotation Yrotation Zrotation
											JOINT RightHandRing2
											{
												OFFSET -9.393799 0.000000 0.000000
												CHANNELS 3 Xrotation Yrotation Zrotation
												JOINT RightHandRing3
												{
													OFFSET -9.928497 0.000000 0.000000
													CHANNELS 3 Xrotation Yrotation Zrotation
													End Site
													{
														OFFSET 0.000000 0.000000 0.000000
													}
												}
											}
										}
										JOINT RightHandPinky1
										{
											OFFSET -23.655350 0.125290 -12.815412
											CHANNELS 3 Xrotation Yrotation Zrotation
											JOINT RightHandPinky2
											{
												OFFSET -8.425102 0.000000 0.000000
												CHANNELS 3 Xrotation Yrotation Zrotation
												JOINT RightHandPinky3
												{
													OFFSET -8.147003 0.000000 0.000000
													CHANNELS 3 Xrotation Yrotation Zrotation
													End Site
													{
														OFFSET 0.000000 0.000000 0.000000
													}
												}
											}
										}
									}
								}
							}
						}
					}
				}
			}
		}
	}
	JOINT LeftUpLeg
	{
		OFFSET 11.394100 -6.187798 -0.413800
		CHANNELS 3 Xrotation Yrotation Zrotation
		JOINT LeftLeg
		{
			OFFSET 0.430247 -32.302673 3.732800
			CHANNELS 3 Xrotation Yrotation Zrotation
			JOINT LeftFoot
			{
				OFFSET -0.430247 -48.264931 -6.423300
				CHANNELS 3 Xrotation Yrotation Zrotation
				JOINT LeftToeBase
				{
					OFFSET 4.230900 -16.068199 23.438400
					CHANNELS 3 Xrotation Yrotation Zrotation
					JOINT LeftToe_End
					{
						OFFSET 4.510700 0.695400 19.974600
						CHANNELS 3 Xrotation Yrotation Zrotation
						End Site
						{
							OFFSET 0.000000 0.000000 0.000000
						}
					}
				}
			}
		}
	}
	JOINT RightUpLeg
	{
		OFFSET -11.333700 -6.187798 -0.413800
		CHANNELS 3 Xrotation Yrotation Zrotation
		JOINT RightLeg
		{
			OFFSET -0.430392 -32.302628 3.733000
			CHANNELS 3 Xrotation Yrotation Zrotation
			JOINT RightFoot
			{
				OFFSET 0.430392 -48.264973 -6.423500
				CHANNELS 3 Xrotation Yrotation Zrotation
				JOINT RightToeBase
				{
					OFFSET -4.230900 -16.068199 23.438400
					CHANNELS 3 Xrotation Yrotation Zrotation
					JOINT RightToe_End
					{
						OFFSET -4.510700 0.695400 19.974600
						CHANNELS 3 Xrotation Yrotation Zrotation
						End Site
						{
							OFFSET 0.000000 0.000000 0.000000
						}
					}
				}
			}
		}
	}
}
MOTION
Frames: 4
Frame Time: 0.016667
10.923860 82.076134 -5.072881 44.135695 -82.107651 44.717996 1.317811 4.460967 3.240934 1.685961 3.692189 0.960058 0.000000 0.000000 0.000000 1.613183 3.756747 0.980634 -3.532982 9.176820 -1.132674 -3.451490 43.959781 -1.786094 0.000000 0.000001 0.000000 0.705582 8.677173 -8.120509 0.000000 0.000000 0.000000 -7.703516 12.546990 -67.827781 -0.000024 -117.532447 -0.000020 -2.759512 -37.106184 22.103088 -9.674874 0.269253 1.575507 21.035323 31.264733 -3.204877 -14.510740 -15.900098 5.153361 0.000000 0.000001 0.000002 -2.849084 3.303453 -72.216328 3.992245 5.548933 -71.446688 0.000002 0.000001 -0.000000 -2.178479 6.191034 -74.467818 5.106530 5.803662 -82.676926 0.000001 0.000000 -0.000000 -2.999866 7.957885 -88.252888 5.714705 5.849485 -88.662351 -0.000002 -0.000002 -0.000001 0.216271 8.542527 -93.244295 6.059379 5.847376 -92.043793 -0.000003 0.000002 -0.000000 0.563285 13.344018 9.556961 0.000000 0.000000 0.000000 -10.871293 35.898641 46.529441 0.000137 101.265177 -0.000122 18.782677 12.790217 -36.872401 -6.752288 7.209117 -18.581258 21.136560 -37.182525 16.258977 -4.776909 10.706929 -21.836994 -0.000000 -0.000001 0.000000 -3.537845 10.196868 38.911458 4.634941 -4.657120 89.726173 -0.000001 0.000003 -0.000003 -5.052443 -1.676053 58.106352 3.619003 -4.540231 77.105760 0.000000 0.000000 -0.000003 -3.873853 -2.931528 61.582673 4.483697 -4.653930 87.863028 -0.000001 -0.000002 0.000000 -1.856276 -4.598471 67.393941 2.939834 -4.329617 68.339738 -0.000002 -0.000001 0.000004 -34.074120 -13.064674 22.409169 51.613192 -5.905036 10.234243 -24.045068 -1.434565 -23.264485 -13.959441 -0.000020 -0.000006 0.000000 -0.000000 0.000000 -24.760003 9.577112 -25.587526 48.379429 3.518705 -9.977952 -31.914769 2.708530 25.451973 -8.845072 0.000000 -0.000001 -0.000000 -0.000001 0.000000 
10.586246 82.471481 -5.008482 34.354438 -81.498166 34.783397 1.314091 4.280094 3.460973 1.674576 3.524500 1.048237 0.000000 0.000000 0.000000 1.609793 3.584450 1.064622 -2.945499 8.978260 -1.211500 -3.441612 42.960432 -1.394688 0.000000 0.000000 -0.000000 0.654792 7.533278 -7.402835 0.000000 0.000000 0.000000 -5.403847 12.550894 -68.677757 0.000012 -118.249726 0.000014 -3.995470 -36.802398 21.789480 -9.674873 0.269250 1.575505 21.019301 31.210293 -3.199420 -14.525664 -15.951253 5.140689 0.000003 -0.000001 -0.000003 -2.853326 3.302264 -72.160914 3.986863 5.547133 -71.391132 -0.000002 0.000002 -0.000001 -2.182417 6.183204 -74.413156 5.100819 5.802933 -82.620523 -0.000003 0.000005 -0.000003 -3.005561 7.949395 -88.198383 5.708895 5.849361 -88.605442 -0.000000 0.000001 0.000001 0.210129 8.537061 -93.188963 6.053645 5.847588 -91.987533 0.000001 -0.000002 0.000001 0.654564 13.133323 8.324371 0.000000 0.000000 0.000000 -11.309132 35.091384 48.626859 0.000265 101.896314 -0.000262 19.025808 12.710594 -36.950022 -6.752287 7.209114 -18.581258 21.103570 -37.132115 16.238843 -4.776776 10.760582 -21.828574 0.000000 0.000000 -0.000000 -3.540184 10.198997 38.856489 4.630416 -4.657080 89.670623 -0.000001 -0.000003 -0.000001 -5.052162 -1.666592 58.052469 3.614521 -4.539191 77.048967 -0.000001 -0.000002 -0.000001 -3.874705 -2.923211 61.528379 4.479134 -4.653769 87.806624 -0.000000 -0.000000 0.000001 -1.858666 -4.592091 67.339047 2.935622 -4.327934 68.283792 0.000001 -0.000001 0.000000 -33.268899 -12.765631 22.528662 50.405884 -5.980755 10.219151 -24.221949 -2.630657 -23.065419 -13.628667 0.000040 0.000003 -0.000000 0.000000 0.000000 -23.544685 8.861953 -25.619618 48.399352 3.577003 -10.062714 -30.515755 2.480649 26.033573 -10.408199 0.000009 0.000001 -0.000000 0.000000 -0.000000 
10.089605 83.776550 -4.880156 24.071612 -79.912243 24.433926 1.189606 4.246491 3.689260 1.555127 3.451242 1.016176 0.000000 0.000000 0.000000 1.491297 3.510713 1.023372 -2.505826 8.602208 -1.279736 -2.965685 40.944686 -0.795755 -0.000000 -0.000001 -0.000000 0.633903 7.205937 -6.991781 0.000000 0.000000 0.000000 -4.027016 9.964041 -67.472044 0.000028 -118.092987 0.000007 -4.207149 -36.031714 21.229131 -9.674871 0.269249 1.575504 20.999809 31.142456 -3.192778 -14.544242 -16.014932 5.124848 0.000001 0.000000 -0.000003 -2.859086 3.300601 -72.091909 3.980184 5.544875 -71.321962 -0.000004 0.000002 0.000000 -2.187312 6.173452 -74.345079 5.093735 5.802007 -82.550274 -0.000000 0.000003 -0.000002 -3.012976 7.938791 -88.130484 5.701684 5.849161 -88.534538 -0.000002 0.000001 -0.000001 0.202174 8.530267 -93.120060 6.046507 5.847798 -91.917544 0.000000 -0.000002 -0.000001 0.703595 12.600984 7.607049 0.000000 0.000000 0.000000 -10.772641 34.147568 49.737687 0.000067 103.261033 -0.000042 18.710991 12.211378 -37.120647 -6.752287 7.209115 -18.581256 21.063277 -37.069072 16.214067 -4.776245 10.827360 -21.818102 -0.000001 0.000002 0.000000 -3.543112 10.201699 38.788077 4.624823 -4.657050 89.601516 -0.000000 0.000001 -0.000002 -5.052103 -1.654621 57.985410 3.608947 -4.537931 76.978281 -0.000001 0.000003 0.000000 -3.875768 -2.912840 61.460767 4.473421 -4.653556 87.736382 -0.000000 -0.000002 0.000001 -1.861650 -4.584159 67.270738 2.930386 -4.325858 68.214165 0.000001 0.000001 0.000002 -32.954771 -11.737472 22.577979 48.021359 -6.127258 10.258430 -22.463208 -5.934207 -23.526947 -13.760231 -0.000010 -0.000002 0.000000 -0.000000 0.000000 -21.544981 7.204940 -25.585586 47.193342 3.832793 -10.345304 -27.419771 2.068857 26.633807 -13.678654 0.000003 0.000004 -0.000001 0.000002 0.000000 
9.547577 85.699745 -4.804902 16.263884 -77.495279 16.638027 0.984693 4.304667 3.848692 1.364925 3.425556 0.933032 0.000000 0.000000 0.000000 1.299354 3.484985 0.928858 -2.094438 8.124937 -1.381036 -2.236922 38.340775 -0.194033 0.000000 0.000001 -0.000000 0.623446 7.184080 -6.717690 0.000000 0.000000 0.000000 -3.255295 6.222738 -65.186280 0.000009 -117.506356 0.000006 -3.863566 -34.828548 20.605533 -9.674867 0.269249 1.575505 20.976990 31.061713 -3.185072 -14.566391 -16.090674 5.105776 0.000002 0.000003 -0.000003 -2.866257 3.298520 -72.009878 3.972224 5.542195 -71.239679 -0.000001 0.000002 -0.000000 -2.193121 6.161868 -74.264155 5.085288 5.800912 -82.466748 0.000000 -0.000001 0.000001 -3.022115 7.926192 -88.049738 5.693094 5.848936 -88.450246 -0.000003 0.000002 -0.000000 0.192404 8.522211 -93.038112 6.038022 5.848084 -91.834229 0.000001 0.000000 0.000001 0.732047 11.989993 7.098536 0.000000 0.000000 0.000000 -9.801461 33.018907 50.192697 0.000096 104.960063 -0.000119 18.245355 11.392882 -37.011286 -6.752285 7.209114 -18.581256 21.015913 -36.993886 16.184917 -4.775311 10.906788 -21.805560 -0.000000 -0.000002 -0.000000 -3.546601 10.204929 38.706733 4.618145 -4.657023 89.519314 -0.000000 -0.000003 -0.000001 -5.052267 -1.640197 57.905702 3.602234 -4.536375 76.894208 0.000000 -0.000002 0.000000 -3.877019 -2.900490 61.380403 4.466662 -4.653267 87.652849 0.000000 0.000003 0.000000 -1.865157 -4.574709 67.189479 2.924112 -4.323362 68.131315 -0.000000 0.000001 0.000002 -32.960779 -10.193032 22.373798 44.798128 -6.247346 10.422760 -19.271901 -10.439654 -23.891571 -14.683520 0.000020 0.000008 0.000000 0.000000 0.000000 -19.647517 5.272259 -25.452702 45.814474 3.990307 -10.571357 -22.697979 1.649084 27.122396 -17.632601 0.000001 0.000005 -0.000000 -0.000000 -0.000000 
